<?xml version="1.0" encoding="UTF-8"?>
<svg width="84px" height="32px" viewBox="0 0 84 32" version="1.1" xmlns="http://www.w3.org/2000/svg" xmlns:xlink="http://www.w3.org/1999/xlink">
    <!-- Generator: Sketch 39.1 (31720) - http://www.bohemiancoding.com/sketch -->
    <title>logo</title>
    <desc>Created with Sketch.</desc>
    <defs></defs>
    <g id="Page-1" stroke="none" stroke-width="1" fill="none" fill-rule="evenodd">
        <g id="logo">
            <g id="Group">
                <rect id="Rectangle-path" fill="#0091FF" x="0" y="0" width="32.0763077" height="32" rx="8"></rect>
                <g transform="translate(9.000000, 6.000000)" id="Shape" stroke="#FFFFFF" stroke-width="0.9">
                    <path d="M9.68179131,10.7458839 L14.3334281,12.2571634 L14.3334281,16.2740293 L9.68290788,17.8483951 L9.66169302,13.8309709 L9.68179131,10.7458839 Z M9.68290788,13.8309709 L14.3334281,12.2566051 L9.68290788,13.8309709 Z M0.12840572,1.8830978 L0.12840572,5.87484085 L5.06700138,7.47879578 L9.6823496,5.87428256 L9.6823496,1.8830978 L5.06700138,3.45132245 L0.12840572,1.8830978 Z"></path>
                    <path d="M5.09491567,7.47879578 L0.12840572,5.87428256 L0.12840572,1.85741666 L5.09491567,3.47923673 L9.6823496,1.85741666 L9.6823496,5.87428256 L5.09491567,7.47879578 Z M0.12840572,1.85741666 L4.74431222,0.25290344 L9.6823496,1.85741666 L0.12840572,1.85741666 Z M5.06700138,3.47923673 L5.06700138,7.47321292 L5.06700138,3.47923673 Z"></path>
                    <g transform="translate(0.000000, 5.582857)">
                        <polygon points="0.12840572 0.291425157 0.12840572 4.2831682 5.06700138 5.88712313 9.6823496 4.28260991 9.6823496 0.291425157 5.06700138 1.86020809"></polygon>
                        <path d="M5.09491567,5.88712313 L0.12840572,4.28260991 L0.12840572,0.265744012 L5.09491567,1.88756409 L9.6823496,0.265744012 L9.6823496,4.28260991 L5.09491567,5.88712313 Z M5.06700138,1.88756409 L5.06700138,5.88209856 L5.06700138,1.88756409 Z"></path>
                    </g>
                    <g transform="translate(0.000000, 9.490858)">
                        <polygon points="0.12840572 0.374609732 0.12840572 4.36635278 5.06700138 5.97030771 9.6823496 4.36579449 9.6823496 0.374609732 5.06700138 1.94339266"></polygon>
                        <path d="M5.09491567,5.97030771 L0.12840572,4.36579449 L0.12840572,0.348928588 L5.09491567,1.97074866 L9.6823496,0.348928588 L9.6823496,4.36579449 L5.09491567,5.97030771 Z M5.06700138,1.97074866 L5.06700138,5.96528314 L5.06700138,1.97074866 Z"></path>
                    </g>
                    <g transform="translate(0.000000, 13.398858)">
                        <polygon points="0.12840572 0.457794307 0.12840572 4.44953735 5.06700138 6.05349228 9.6823496 4.44897907 9.6823496 0.457794307 5.06700138 2.02657724"></polygon>
                        <path d="M5.09491567,6.05349228 L0.12840572,4.44953735 L0.12840572,0.432671449 L5.09491567,2.05449152 L9.6823496,0.432671449 L9.6823496,4.44953735 L5.09491567,6.05349228 Z M5.06700138,2.05449152 L5.06700138,6.04846771 L5.06700138,2.05449152 Z"></path>
                    </g>
                </g>
                <g transform="translate(42.461538, 9.230769)" id="Shape" fill="#000000">
                    <path d="M0.217230769,0.0633846154 L0.217230769,12.9864615 L9.31876923,12.9864615 L9.31876923,10.4941538 L2.98646154,10.4941538 L2.98646154,0.0633846154 L0.217230769,0.0633846154 Z M10.0572308,8.55569231 C10.0572308,11.6387692 12.3833846,13.2449231 15.1895385,13.2449231 C16.5187692,13.2449231 17.608,13.0418462 18.4387692,12.6910769 L18.4387692,10.6787692 C17.6818462,11.0110769 16.7772308,11.2141538 15.7618462,11.2141538 C14.3033846,11.2141538 12.9372308,10.6787692 12.6418462,9.38646154 L18.8818462,9.38646154 C19.4726154,6.76492308 18.2910769,3.86646154 14.6172308,3.86646154 C12.6233846,3.86646154 10.0572308,5.21415385 10.0572308,8.55569231 L10.0572308,8.55569231 Z M16.5741538,7.72492308 L12.6233846,7.72492308 C12.6603077,6.50646154 13.6203077,5.82338462 14.7095385,5.82338462 C16.3156923,5.82338462 16.6664615,7.11569231 16.5741538,7.72492308 L16.5741538,7.72492308 Z M20.1556923,8.55569231 C20.1556923,10.9741538 21.6695385,13.2449231 24.4941538,13.2449231 C25.8972308,13.2449231 26.8387692,12.6726154 27.4110769,12.0449231 L27.4110769,12.8572308 C27.4110769,14.6110769 26.1003077,15.1464615 24.5310769,15.1464615 C23.3126154,15.1464615 22.1126154,14.8141538 21.1156923,14.2233846 L21.1156923,16.4756923 C22.1864615,16.9926154 23.4787692,17.3064615 24.8633846,17.3064615 C27.4664615,17.3064615 29.9587692,16.1249231 29.9587692,12.7464615 L29.9587692,4.12492308 L27.7064615,4.12492308 L27.7064615,5.41723077 C27.1341538,4.62338462 26.1187692,3.86646154 24.4941538,3.86646154 C21.6695385,3.86646154 20.1556923,6.13723077 20.1556923,8.55569231 L20.1556923,8.55569231 Z M27.4110769,7.50338462 L27.4110769,9.66338462 C27.0603077,10.4018462 26.2295385,11.0849231 25.1033846,11.0849231 C23.6449231,11.0849231 22.7772308,9.94030769 22.7772308,8.55569231 C22.7772308,7.17107692 23.6449231,6.02646154 25.1033846,6.02646154 C26.0957463,6.02341626 26.9981992,6.60098611 27.4110769,7.50338462 L27.4110769,7.50338462 Z M31.6387692,8.55569231 C31.6387692,11.6572308 33.9649231,13.2449231 36.5310769,13.2449231 C39.1156923,13.2449231 41.4233846,11.6572308 41.4233846,8.55569231 C41.4233846,5.45415385 39.1156923,3.86646154 36.5310769,3.86646154 C33.9649231,3.86646154 31.6387692,5.45415385 31.6387692,8.55569231 L31.6387692,8.55569231 Z M38.8203077,8.55569231 C38.8203077,9.92184615 38.008,10.9556923 36.5310769,10.9556923 C35.0726154,10.9556923 34.2603077,9.92184615 34.2603077,8.55569231 C34.2603077,7.18953846 35.0726154,6.15569231 36.5310769,6.15569231 C38.008,6.15569231 38.8203077,7.18953846 38.8203077,8.55569231 L38.8203077,8.55569231 Z"></path>
                </g>
            </g>
        </g>
    </g>
</svg>